<svg xmlns="http://www.w3.org/2000/svg" version="1.1" id="Layer_1" x="0" y="0" viewBox="0 0 1000 1000" xml:space="preserve">
  <style>
    .st0{fill:#fff}
  </style>
  <path class="st0" d="M652.4 648.3c-9.1 14.9-20 27.4-32.8 37.4-12.8 10-24.3 15-34.5 15-5.7 0-9.9-1.5-12.8-4.5-2.8-3-4.3-7.5-4.3-13.3 0-5.4 7.2-25.2 21.7-59.5l37.5-87.8c16.7-39.4 25.1-64.4 25.1-74.9 0-13.3-4.7-23.2-14-29.7-9.4-6.5-23.6-9.8-42.6-9.8-42 0-88.5 25.4-139.6 76.3l45.4-122.6 134.8-35.4-7.5-28.5L514 341.2l38.8-104.8h-10.6c-21.9 7.5-55.3 11.7-100.4 12.6l-5.1 14.7h13.6c15 0 24.5 1.2 28.3 3.5 3.8 2.3 5.7 6.2 5.7 11.5 0 3.7-4.3 17-12.8 39.9l-13.8 37.3-100 26.2 7.5 28.5 80.1-21-123.2 333.3h50.6l32.3-86.4c13.9-38.3 25.2-66.1 33.8-83.6 8.7-17.5 22.3-36.2 41.1-56.2 18.7-19.9 36.7-34.2 54-42.7 17.3-8.5 32.3-12.8 45.1-12.8 7.9 0 13.8 1.5 17.7 4.4 3.8 2.9 5.8 7.3 5.8 13.1 0 9.6-8.4 32.9-25.1 70l-36.2 80.8c-15.9 35.7-23.8 60.6-23.8 74.5 0 13.1 4.7 23.6 14 31.5 9.4 7.9 20.6 11.9 33.6 11.9 17.9 0 36.7-7.2 56.6-21.7s37-33.6 51.5-57.4h-20.7z"/>
  <path class="st0" d="M503 976.4c-63.9 0-125.8-12.5-184.2-37.2-56.3-23.8-106.9-57.9-150.4-101.4-43.4-43.4-77.6-94-101.4-150.4-24.7-58.3-37.2-120.3-37.2-184.2 0-63.9 12.5-125.8 37.2-184.2 23.8-56.3 57.9-106.9 101.4-150.4 43.4-43.4 94-77.6 150.4-101.4 58.4-24.5 120.3-37 184.2-37s125.8 12.5 184.2 37.2c56.3 23.8 106.9 57.9 150.4 101.4 43.4 43.4 77.6 94 101.4 150.4 24.7 58.3 37.2 120.3 37.2 184.2 0 63.9-12.5 125.8-37.2 184.2-23.8 56.3-57.9 106.9-101.4 150.4-43.4 43.4-94 77.6-150.4 101.4-58.4 24.5-120.4 37-184.2 37m0-919.5c-60.3 0-118.7 11.8-173.8 35.1-53.2 22.5-100.9 54.7-141.9 95.7s-73.2 88.7-95.7 141.9c-23.3 55-35.1 113.5-35.1 173.8 0 60.3 11.8 118.7 35.1 173.8 22.5 53.2 54.7 100.9 95.7 141.9s88.7 73.2 141.9 95.7c55 23.3 113.5 35.1 173.8 35.1 60.3 0 118.7-11.8 173.8-35.1 53.2-22.5 100.9-54.7 141.9-95.7s73.2-88.7 95.7-141.9c23.3-55 35.1-113.5 35.1-173.8 0-60.3-11.8-118.7-35.1-173.8-22.5-53.2-54.7-100.9-95.7-141.9S730 114.5 676.8 92C621.7 68.7 563.3 56.9 503 56.9"/>
</svg>