<svg width="30" height="31" xmlns="http://www.w3.org/2000/svg">
    <polygon points="5.20353982 30.1061947 9.55752212 22.5663717 13.9115044 15.0530973 18.2389381 7.51327434 18.9557522 6.31858407 19.2743363 7.51327434 20.6017699 12.4778761 19.1150442 15.0530973 14.7610619 22.5663717 10.4336283 30.1061947 15.6371681 30.1061947 19.9911504 22.5663717 22.2477876 18.6637168 23.3097345 22.5663717 25.3274336 30.1061947 30 30.1061947 27.9823009 22.5663717 25.9646018 15.0530973 25.4336283 13.1150442 28.6725664 7.51327434 23.9469027 7.51327434 23.7876106 6.95575221 22.1415929 0.796460177 21.9292035 0 17.3893805 0 17.2831858 0.159292035 13.0353982 7.51327434 8.68141593 15.0530973 4.3539823 22.5663717 0 30.1061947" fill="#fff" fill-rule="nonzero"/>
</svg>
