<svg width="198" height="198" viewBox="0 0 198 198" version="1.1" xmlns="http://www.w3.org/2000/svg" xmlns:xlink="http://www.w3.org/1999/xlink">
        <path d="M45.951,182.571 C61.285,192.327 79.474,198.001 98.994,198.001 C110.431,198.001 121.403,196.038 131.621,192.47 L94.581,146.849 L45.951,182.571" id="Fill-8" fill="#fff" opacity="0.90438058"></path>
        <path d="M46.315,87.405 L0.297,106.392 C2.668,138.452 20.29,166.249 45.951,182.571 L94.581,146.849 L46.315,87.405" id="Fill-7" fill="#fff" opacity="0.776985677"></path>
        <path d="M94.581,146.849 L131.621,192.47 C141.785,188.923 151.187,183.769 159.534,177.308 L141.584,112.325 L94.581,146.849" id="Fill-6" fill="#fff" opacity="0.613504464"></path>
        <path d="M141.584,112.325 L159.534,177.308 C182.922,159.198 197.995,130.866 197.995,98.999 C197.995,90.13 196.813,81.54 194.624,73.364 L141.584,112.325" id="Fill-5" fill="#fff"></path>
        <path d="M194.624,73.364 C184.309,34.788 151.287,5.517 110.751,0.718 L141.584,112.325 L194.624,73.364" id="Fill-4" fill="#fff" opacity="0.839518229"></path>
        <path d="M14.212,47.864 C5.191,62.792 -0.005,80.288 -0.005,98.999 C-0.005,101.489 0.117,103.948 0.297,106.392 L46.315,87.405 L14.212,47.864" id="Fill-3" fill="#fff" opacity="0.960770089"></path>
        <polyline id="Fill-2" fill="#fff" opacity="0.0914249" points="125.655 54.666 46.315 87.405 94.581 146.849 141.584 112.325 125.655 54.666"></polyline>
        <path d="M110.751,0.718 C106.894,0.261 102.975,-0.001 98.994,-0.001 C63.03,-0.001 31.55,19.179 14.212,47.864 L46.315,87.405 L125.655,54.666 L110.751,0.718" id="Fill-1" fill="#fff" opacity="0.741624814"></path>
</svg>
