<svg width="37" height="35" fill="none" xmlns="http://www.w3.org/2000/svg">
  <path d="M8.146 2.641a.7.7 0 01.7-.7h13.085v6.53a1.3 1.3 0 001.3 1.3h6.546v20.947a.7.7 0 01-.7.7H8.847a.7.7 0 01-.7-.7V2.641z" fill="#fff" stroke="#92929D" stroke-width=".6"/>
  <path d="M22.23 9.472V1.625l7.847 7.846-7.846.001z" fill="#B8B8C0"/>
  <path d="M21.64 2.143l.59-.518 7.778 7.833-.59.518-7.777-7.833z" fill="#92929D"/>
  <rect y="13" width="30.077" height="11.769" rx="1" fill="#44444F"/>
  <path d="M30.577 27.933v-9.154h-3.615v9.154H22.33l.854.853 4.524 4.524a1.5 1.5 0 002.121 0l4.524-4.524.853-.853h-4.63z" fill="#92929D" stroke="#fff"/>
  <path d="M8.45 19.97c-.08.677-.33 1.2-.752 1.569-.42.366-.977.549-1.675.549-.755 0-1.362-.271-1.819-.813-.454-.542-.681-1.267-.681-2.175v-.616c0-.594.105-1.117.316-1.569a2.38 2.38 0 01.906-1.037c.39-.243.84-.364 1.353-.364.68 0 1.225.19 1.635.571.41.378.649.902.716 1.573h-.848c-.073-.51-.233-.879-.479-1.107-.243-.229-.584-.343-1.024-.343-.539 0-.962.2-1.27.598-.305.398-.457.965-.457 1.7v.62c0 .694.145 1.247.435 1.657.29.41.696.615 1.217.615.47 0 .828-.105 1.077-.317.252-.213.419-.584.501-1.111h.848zm3.04-.822c-.723-.208-1.25-.463-1.582-.765a1.475 1.475 0 01-.492-1.125c0-.504.2-.92.602-1.248.404-.33.929-.496 1.573-.496.44 0 .83.085 1.174.255.345.17.612.404.8.703.19.298.285.625.285.98h-.848c0-.387-.123-.69-.37-.91-.245-.223-.592-.334-1.04-.334-.417 0-.742.092-.976.277-.232.181-.347.435-.347.76 0 .26.11.482.33.664.222.178.598.343 1.128.492.534.15.95.315 1.249.497.301.178.524.388.668.628.146.24.22.523.22.848 0 .519-.203.935-.607 1.248-.405.31-.945.466-1.622.466-.44 0-.85-.084-1.23-.25-.381-.17-.676-.402-.884-.695a1.698 1.698 0 01-.307-.998h.848c0 .387.142.693.426.919.287.223.67.334 1.147.334.446 0 .787-.09 1.024-.273a.885.885 0 00.356-.742c0-.314-.11-.555-.33-.725-.22-.173-.618-.343-1.195-.51zm5.577 1.731l1.828-5.277h.923L17.445 22h-.747l-2.369-6.398h.919l1.819 5.277z" fill="#fff"/>
</svg>