<svg width="180" height="180" xmlns="http://www.w3.org/2000/svg">
    <path d="M141.2 0a38.8 38.8 0 00-38.9 38.7v43c-4 .2-8 .4-12.3.4-4.2 0-8.3.1-12.3.4V38.7a38.8 38.8 0 00-77.7 0v102.6a38.8 38.8 0 0077.7 0v-43c4-.2 8-.4 12.3-.4 4.2 0 8.3-.1 12.3-.4v43.8a38.8 38.8 0 0077.7 0V38.7A38.8 38.8 0 00141.2 0zM38.8 15.9a23 23 0 0123 22.8v45.5a130.6 130.6 0 00-33 9.3 60 60 0 00-12.9 7.6V38.7A23 23 0 0139 16zm23 125.4a23 23 0 01-45.9 0V131c0-9 7.2-17.7 19.3-23a113 113 0 0126.5-7.8v41zm79.4 22.8a23 23 0 01-23-22.8V95.8c11.4-1.6 22.5-4.7 33-9.3a60 60 0 0012.9-7.6v62.4a23 23 0 01-23 22.8zm3.6-92.1a113 113 0 01-26.6 7.8v-41a23 23 0 0145.9 0V49c0 9-7.2 17.7-19.3 23z" fill="#fff"/>
</svg>
