<svg width="127" height="126" xmlns="http://www.w3.org/2000/svg">
    <path fill="none" d="M-1-1h129v128H-1z"/>
    <path d="M63.5 3.359c-24.927 0-45.3 20.253-45.3 45.3 0 5.033.839 9.946 2.397 14.74 1.078 3.236 4.674 5.033 8.03 3.955 3.235-1.079 5.033-4.674 3.954-8.03A31.91 31.91 0 0130.783 47.7c.48-16.898 14.142-30.8 31.04-31.638 18.814-.959 34.394 14.021 34.394 32.597 0 17.376-13.662 31.638-30.8 32.596 0 0-6.351.36-9.467.84-1.558.239-2.756.479-3.595.598-.36.12-.72-.24-.6-.599l1.08-5.273 5.871-27.084c.72-3.355-1.438-6.711-4.793-7.43-3.356-.72-6.711 1.438-7.43 4.794 0 0-14.142 65.912-14.262 66.631-.719 3.356 1.439 6.711 4.794 7.43 3.356.72 6.711-1.438 7.43-4.793.12-.72 2.038-9.468 2.038-9.468 1.438-6.71 6.95-11.624 13.422-12.463 1.438-.24 7.07-.6 7.07-.6 23.37-1.797 41.825-21.331 41.825-45.18 0-25.046-20.373-45.3-45.3-45.3zm3.236 104.261c-4.075-.838-8.15 1.678-8.988 5.873-.84 4.074 1.677 8.149 5.872 8.988 4.074.839 8.149-1.678 8.988-5.872.839-4.195-1.678-8.15-5.872-8.989z" fill="#fff" stroke="null"/>
</svg>
