<svg xmlns="http://www.w3.org/2000/svg" viewBox="0 0 20 20">
    <g fill-rule="nonzero" fill="none">
        <circle fill="#fff" cx="10" cy="10" r="10"/>
        <path d="M14.376 13.984L10.994 5.81c-.191-.423-.474-.63-.848-.63h-.3c-.373 0-.656.207-.847.63L7.53 9.37H6.414a.609.609 0 00-.607.605v.008a.609.609 0 00.607.605h.598l-1.404 3.395a.716.716 0 00-.042.232c0 .19.058.34.166.456.108.115.258.173.449.173a.608.608 0 00.349-.116.737.737 0 00.24-.306l1.547-3.835H9.39a.609.609 0 00.606-.604v-.017a.609.609 0 00-.606-.604h-.574l1.18-2.94 3.216 8a.737.737 0 00.242.306.608.608 0 00.349.116c.19 0 .34-.058.448-.174a.64.64 0 00.167-.455.548.548 0 00-.042-.232z" fill="#7190EB" opacity=".959"/>
    </g>
</svg>
