<svg width="512" height="516" xmlns="http://www.w3.org/2000/svg">
    <path d="M296.949 365.558l-45.42-79.484-46.245 79.484-34.89-2.375 65.755-112.825-59.252-97.342 35.716-3.2 42.22 72.155 42.219-68.955 33.239.826-55.123 95.69 60.8 115.2-38.916.826h-.103zM511.968 218.77C425.155-117.126 30.11-25.05.071 218.77c47.071 30.451 63.278 40.567 63.278 40.567s-33.24 19.51-63.278 34.89c59.252 322.891 484.336 265.291 507.871 4.026-9.703-6.503-64.929-40.567-64.929-40.567s58.426-33.239 68.955-38.916z" fill="#fff"/>
</svg>
