<svg version="1.1" id="Layer_1" xmlns="http://www.w3.org/2000/svg" x="0" y="0" viewBox="0 0 520 520" xml:space="preserve">
  <style>
    .st0{fill:#fff}
  </style>
  <path class="st0" d="M155.6 370.7c5.9 0 11.2-3.2 14-8.4l37.3-70.6h-57.5c-8.7 0-15.8-7.1-15.8-15.8v-31.6c0-8.7 7.1-15.8 15.8-15.8h90.9l70.6-133.9c2.7-5.2 8.1-8.4 14-8.4h118.8C397.5 37.4 332.3 7 260 7 120.3 7 7 120.3 7 260c0 39.7 9.2 77.3 25.5 110.7h123.1z"/>
  <path class="st0" d="M364.4 149.3c-5.9 0-11.2 3.2-14 8.4l-37.3 70.6h57.5c8.7 0 15.8 7.1 15.8 15.8v31.6c0 8.7-7.1 15.8-15.8 15.8h-90.9l-70.6 133.9a15.7 15.7 0 01-14 8.4H76.4C122.5 482.6 187.7 513 260 513c139.7 0 253-113.3 253-253 0-39.7-9.2-77.3-25.5-110.7H364.4z"/>
</svg>
