<svg xmlns="http://www.w3.org/2000/svg" width="512" height="512" viewBox="0 0 384 384" version="1.1" id="svg11"><defs id="defs15"><linearGradient id="SVGID_1_" gradientUnits="userSpaceOnUse" x1="100" y1="-175.605" x2="100" y2="32.778" gradientTransform="translate(0 168.298)"><stop offset="0" id="stop847" stop-color="#ffd663"/><stop offset="1" id="stop849" stop-color="#c89c65"/></linearGradient></defs><style type="text/css" id="style842"></style><path d="M228.518 187.621c19.2-5.39 28.8-16.337 28.8-32.926 0-12.295-4.294-21.137-12.8-26.358-6.82-4.21-16.59-6.653-29.39-7.495v-24.42h-18.862v24.083h-18.863V96.421h-18.864v24.084h-37.81v17.348h8.084c6.063 0 9.937.758 11.369 2.273 1.515 1.516 2.273 5.137 2.273 10.948v81.6c0 5.81-.758 9.515-2.273 10.947-1.516 1.516-5.306 2.274-11.369 2.274h-8.084v17.431h37.81v24.253h18.864v-24.253h18.863v24.253h18.863v-24.674c14.653-.926 25.768-3.537 33.179-7.915 10.105-6.148 15.158-16.253 15.158-30.485 0-20.631-11.705-32.926-34.948-36.884zm-51.2-49.768h12.38c10.778 0 18.61 1.515 23.326 4.463 4.715 2.947 7.158 8.42 7.158 16.337 0 8.168-2.443 13.894-7.243 17.094-4.8 3.2-12.968 4.8-24.252 4.8h-11.284v-42.694zm40.337 103.41c-5.22 3.284-14.231 4.884-26.863 4.884h-13.39V197.98h12.97c12.799 0 21.894 1.6 27.283 4.716 5.98 3.537 8.927 9.768 8.927 18.779 0 9.431-3.032 16.084-8.927 19.79zm-25.6-197.642c-81.937 0-148.379 66.442-148.379 148.379s66.442 148.379 148.38 148.379c81.936 0 148.378-66.442 148.378-148.379S273.992 43.621 192.055 43.621zm0 272.084c-68.294 0-123.62-55.326-123.62-123.62 0-68.296 55.326-123.622 123.62-123.622 68.295 0 123.621 55.326 123.621 123.621 0 68.21-55.326 123.621-123.62 123.621zM48.561 125.221L18.75 108.042l13.979-24.168 29.81 17.179c-5.389 7.663-10.02 15.747-13.978 24.168zm286.989 0c-3.958-8.505-8.674-16.59-13.979-24.168l29.81-17.18 13.98 24.17zM192.055 33.684c-4.716 0-9.347.253-13.979.674V0h27.958v34.358c-4.631-.421-9.263-.674-13.979-.674zM48.561 258.78c3.957 8.505 8.673 16.59 13.978 24.168l-29.81 17.18-13.979-24.17zm286.989 0l29.726 17.179-13.979 24.168-29.81-17.179c5.474-7.663 10.105-15.663 14.063-24.168zm-143.495 91.537c4.716 0 9.348-.253 13.98-.674V384h-27.959v-34.358c4.632.421 9.263.674 13.98.674z" id="path852" fill="#fff" fill-opacity="1" stroke-width="1.979" stroke-miterlimit="4" stroke-dasharray="none"/></svg>